<?xml version="1.0" encoding="UTF-8" standalone="no"?>
<svg
   xmlns:dc="http://purl.org/dc/elements/1.1/"
   xmlns:cc="http://creativecommons.org/ns#"
   xmlns:rdf="http://www.w3.org/1999/02/22-rdf-syntax-ns#"
   xmlns:svg="http://www.w3.org/2000/svg"
   xmlns="http://www.w3.org/2000/svg"
   xmlns:sodipodi="http://sodipodi.sourceforge.net/DTD/sodipodi-0.dtd"
   xmlns:inkscape="http://www.inkscape.org/namespaces/inkscape"
   viewBox="0 0 512 512"
   version="1.1"
   id="svg4"
   sodipodi:docname="envelope.svg"
   inkscape:version="0.92.3 (2405546, 2018-03-11)">
  <metadata
     id="metadata10">
    <rdf:RDF>
      <cc:Work
         rdf:about="">
        <dc:format>image/svg+xml</dc:format>
        <dc:type
           rdf:resource="http://purl.org/dc/dcmitype/StillImage" />
        <dc:title />
      </cc:Work>
    </rdf:RDF>
  </metadata>
  <defs
     id="defs8" />
  <sodipodi:namedview
     pagecolor="#ffffff"
     bordercolor="#666666"
     borderopacity="1"
     objecttolerance="10"
     gridtolerance="10"
     guidetolerance="10"
     inkscape:pageopacity="0"
     inkscape:pageshadow="2"
     inkscape:window-width="1920"
     inkscape:window-height="1125"
     id="namedview6"
     showgrid="false"
     inkscape:zoom="0.4609375"
     inkscape:cx="-644.33898"
     inkscape:cy="256"
     inkscape:window-x="0"
     inkscape:window-y="0"
     inkscape:window-maximized="1"
     inkscape:current-layer="svg4" />
  <g
     id="g857"
     style="fill:#666666">
    <path
       id="path5411"
       d="M 255.66009,7.6811409 C 118.77874,7.6811409 7.680254,118.77963 7.680254,255.66895 c 0,136.88135 111.098486,247.97984 247.979836,247.97984 136.88134,0 247.97983,-111.09849 247.97983,-247.97984 0,-136.88932 -111.09849,-247.9878091 -247.97983,-247.9878091 z M 186.22967,381.14564 c -17.3597,0 -34.71941,0 -52.07911,0 0,-55.54925 0,-111.09849 0,-166.64774 0,-0.81473 0,-0.97853 0.81472,-0.97853 17.35971,0 34.7192,0 52.0789,0 -0.81472,55.54924 -0.81472,111.5953 -0.81472,167.63338 z m -43.15075,-195.4121 c -7.90176,-5.45802 -14.38617,-16.86268 -12.90371,-30.25523 1.46565,-9.9138 8.43953,-18.34535 15.87703,-22.31251 2.44397,-1.46564 5.94686,-2.44375 9.9222,-2.44375 19.836,-2.44396 34.71122,11.41285 34.71122,30.25502 -0.81472,22.81772 -26.77669,38.68656 -47.60674,24.7972 z m 238.55467,195.4121 c -17.35971,0 -34.71941,0 -52.07093,0 0,-18.85036 0,-38.68657 0,-60.01343 0,-25.29402 3.42164,-54.55541 -13.88914,-63.48356 -8.43156,-4.48056 -19.83622,-2.9328 -27.27372,0 -18.85035,8.43134 -17.36789,35.21622 -17.36789,64.4774 0,20.33302 0,41.65988 0,59.01959 -17.35949,0 -34.71101,0 -52.07891,0 0,-56.04606 0,-112.09233 0,-167.63339 16.87088,0 33.23674,0 50.09942,0 0,7.41315 0,15.37204 0,22.80954 1.95491,-1.46565 2.44397,-3.50289 3.99173,-5.45802 8.92815,-11.90169 24.79721,-21.82389 45.13821,-21.82389 25.78307,0 44.13639,8.92837 53.5536,25.29424 9.92198,17.35948 9.92198,41.66786 9.92198,68.94157 0,25.29402 0,53.07274 0,77.86995 z"
       inkscape:connector-curvature="0"
       style="fill:#666666;fill-opacity:1;stroke-width:4.95962524" />
    <ellipse
       ry="179.05171"
       rx="176.81355"
       cy="267.86356"
       cx="259.25424"
       id="path853"
       style="opacity:1;fill:#666666;fill-opacity:1;stroke:none;stroke-width:3.89913297;stroke-miterlimit:4;stroke-dasharray:3.89913286, 7.79826571999999985;stroke-dashoffset:0;stroke-opacity:1" />
  </g>
  <path
     inkscape:connector-curvature="0"
     d="m 425.11143,211.79153 c 2.6606,-2.11483 6.61738,-0.13644 6.61738,3.20635 v 139.5106 c 0,18.07839 -14.66738,32.74576 -32.74577,32.74576 H 115.18643 c -18.078388,0 -32.745758,-14.66737 -32.745758,-32.74576 V 215.0661 c 0,-3.41101 3.88856,-5.32118 6.61737,-3.20635 15.281358,11.87034 35.542798,26.94703 105.127548,77.4983 14.39449,10.50594 38.68093,32.60933 62.89915,32.47288 24.35466,0.20467 49.11864,-22.37627 62.96737,-32.47288 69.58475,-50.55127 89.77797,-65.69618 105.05932,-77.56652 z m -168.02669,88.14068 c 15.82712,0.27288 38.61271,-19.92034 50.07373,-28.24322 90.52839,-65.69619 97.41864,-71.4267 118.29406,-87.79958 3.95678,-3.06992 6.27628,-7.84534 6.27628,-12.89364 V 158.0339 c 0,-18.07839 -14.66738,-32.74576 -32.74577,-32.74576 H 115.18643 c -18.078388,0 -32.745758,14.66737 -32.745758,32.74576 v 12.96187 c 0,5.0483 2.31949,9.7555 6.27627,12.89364 20.875418,16.30466 27.765678,22.10339 118.294068,87.79958 11.46102,8.32288 34.24661,28.5161 50.07373,28.24322 z"
     id="path2"
     style="stroke-width:0.68220341;fill:#ffffff" />
</svg>
