<?xml version="1.0" encoding="UTF-8" standalone="no"?>
<svg
   xmlns:dc="http://purl.org/dc/elements/1.1/"
   xmlns:cc="http://creativecommons.org/ns#"
   xmlns:rdf="http://www.w3.org/1999/02/22-rdf-syntax-ns#"
   xmlns:svg="http://www.w3.org/2000/svg"
   xmlns="http://www.w3.org/2000/svg"
   xmlns:sodipodi="http://sodipodi.sourceforge.net/DTD/sodipodi-0.dtd"
   xmlns:inkscape="http://www.inkscape.org/namespaces/inkscape"
   viewBox="0 0 512 512"
   version="1.1"
   id="svg4"
   sodipodi:docname="facebook-square.svg"
   inkscape:version="0.92.3 (2405546, 2018-03-11)">
  <metadata
     id="metadata10">
    <rdf:RDF>
      <cc:Work
         rdf:about="">
        <dc:format>image/svg+xml</dc:format>
        <dc:type
           rdf:resource="http://purl.org/dc/dcmitype/StillImage" />
        <dc:title />
      </cc:Work>
    </rdf:RDF>
  </metadata>
  <defs
     id="defs8" />
  <sodipodi:namedview
     pagecolor="#ffffff"
     bordercolor="#666666"
     borderopacity="1"
     objecttolerance="10"
     gridtolerance="10"
     guidetolerance="10"
     inkscape:pageopacity="0"
     inkscape:pageshadow="2"
     inkscape:window-width="1920"
     inkscape:window-height="1125"
     id="namedview6"
     showgrid="false"
     inkscape:zoom="0.4609375"
     inkscape:cx="-644.33898"
     inkscape:cy="256"
     inkscape:window-x="0"
     inkscape:window-y="0"
     inkscape:window-maximized="1"
     inkscape:current-layer="svg4" />
  <path
     style="fill:#666666;fill-opacity:1;stroke-width:5.0270381"
     inkscape:connector-curvature="0"
     d="M 257.92915,5.9193673 C 119.18731,5.9193673 6.5787242,118.52794 6.5787242,257.27815 c 0,138.74188 112.6085858,251.35047 251.3504258,251.35047 138.74197,0 251.35877,-112.60859 251.35877,-251.35047 0,-138.75021 -112.6168,-251.3587827 -251.35877,-251.3587827 z M 293.12054,191.42056 c 17.59552,0 36.1901,-0.82581 53.78579,0.8258 -0.82577,18.60302 0,38.20507 -0.82577,56.80808 -17.5957,0 -35.69487,0 -53.29057,0 0,58.81445 0,117.13344 0,175.94768 -25.13405,0 -50.26828,0 -75.40251,0 0,-58.81424 0,-117.13323 0,-175.94768 -15.58105,-0.8258 -32.16944,0 -48.26224,-0.8258 0,-19.10657 0,-38.20506 0,-57.31164 16.0928,0 32.16943,0 47.75841,0 0.82578,-15.07718 0,-28.65177 0.98973,-40.71523 0.98955,-12.07154 5.03695,-22.12031 10.56084,-30.66625 11.05586,-16.08454 29.15522,-29.155341 53.78579,-30.162697 20.10555,-0.991829 42.72992,0.825808 64.34663,0.825808 0,19.106569 0.82576,38.708619 -0.82578,57.311629 -10.55257,0.82581 -21.6086,-0.98965 -30.66656,0 -9.54489,0.99184 -16.5882,6.52296 -19.60207,13.57459 -4.54137,8.54594 -3.05502,19.09828 -3.05502,30.66624 z"
     id="path5409" />
</svg>
