<?xml version="1.0" encoding="UTF-8" standalone="no"?>
<svg
   xmlns:dc="http://purl.org/dc/elements/1.1/"
   xmlns:cc="http://creativecommons.org/ns#"
   xmlns:rdf="http://www.w3.org/1999/02/22-rdf-syntax-ns#"
   xmlns:svg="http://www.w3.org/2000/svg"
   xmlns="http://www.w3.org/2000/svg"
   xmlns:sodipodi="http://sodipodi.sourceforge.net/DTD/sodipodi-0.dtd"
   xmlns:inkscape="http://www.inkscape.org/namespaces/inkscape"
   viewBox="0 0 512 512"
   version="1.1"
   id="svg4"
   sodipodi:docname="twitter.svg"
   inkscape:version="0.92.3 (2405546, 2018-03-11)">
  <metadata
     id="metadata10">
    <rdf:RDF>
      <cc:Work
         rdf:about="">
        <dc:format>image/svg+xml</dc:format>
        <dc:type
           rdf:resource="http://purl.org/dc/dcmitype/StillImage" />
      </cc:Work>
    </rdf:RDF>
  </metadata>
  <defs
     id="defs8" />
  <sodipodi:namedview
     pagecolor="#ffffff"
     bordercolor="#666666"
     borderopacity="1"
     objecttolerance="10"
     gridtolerance="10"
     guidetolerance="10"
     inkscape:pageopacity="0"
     inkscape:pageshadow="2"
     inkscape:window-width="1920"
     inkscape:window-height="1125"
     id="namedview6"
     showgrid="false"
     inkscape:zoom="0.4609375"
     inkscape:cx="-194.16949"
     inkscape:cy="256"
     inkscape:window-x="0"
     inkscape:window-y="0"
     inkscape:window-maximized="1"
     inkscape:current-layer="svg4" />
  <path
     style="fill:#666666;stroke-width:5.00299501"
     inkscape:connector-curvature="0"
     d="M 253.66009,5.6811409 C 115.5775,5.6811409 3.511606,117.74855 3.511606,255.83036 c 0,138.08182 112.065894,250.14922 250.148484,250.14922 138.08268,0 250.1503,-112.0674 250.1503,-250.14922 0,-138.08181 -112.06762,-250.1492191 -250.1503,-250.1492191 z M 387.24041,187.7885 c 1.49369,45.52792 -11.50613,82.05029 -28.51648,110.56721 -16.50942,28.01685 -39.02442,50.53077 -66.03963,66.53947 -27.01714,16.51094 -63.03878,28.51693 -105.56303,27.01672 -39.52334,-1.00013 -71.04284,-12.50822 -96.558485,-28.01686 -1.493679,-1.00013 -3.501998,-2.00026 -4.502351,-3.50265 44.025756,5.00287 77.545766,-9.50564 101.560026,-28.01684 -17.50977,-0.50007 -31.01826,-6.50307 -41.02288,-15.00856 -10.00658,-8.00544 -18.51187,-19.01128 -23.01421,-33.01971 9.00447,2.00027 22.01212,1.50021 30.01798,-1.00014 -16.51116,-3.50265 -28.51843,-12.50822 -38.02385,-23.51405 -9.50565,-10.50579 -16.008483,-25.01428 -16.008483,-45.02787 0.491363,-1.00014 2.000273,0.50008 3.000823,1.00014 7.50495,3.50263 17.01059,6.50522 27.51635,7.00529 -17.01034,-12.00816 -34.018954,-35.02215 -29.01763,-67.53961 1.49369,-9.50781 4.50409,-17.51109 8.50528,-24.51638 4.50409,4.5028 8.5053,9.50564 13.00939,14.00843 31.01812,31.01943 71.04087,53.53335 129.07616,58.03616 -8.00414,-35.52222 10.50577,-62.03889 33.02077,-75.045 12.50627,-7.0053 30.018,-10.50795 47.02663,-7.0053 15.50905,3.00259 27.51635,11.00803 36.52256,20.01141 17.01058,-3.00041 30.51915,-9.50563 43.52657,-16.50875 -6.00364,16.50875 -15.50905,29.51704 -30.018,37.52248 14.00778,-1.00013 27.51636,-6.00298 39.02249,-10.50577 -8.50528,14.50849 -20.51257,26.01441 -33.52,36.52018 z"
     id="path5413" />
</svg>
